<?xml version="1.0" standalone="no"?>
<!DOCTYPE svg PUBLIC "-//W3C//DTD SVG 20010904//EN"
 "http://www.w3.org/TR/2001/REC-SVG-20010904/DTD/svg10.dtd">
<svg version="1.0" xmlns="http://www.w3.org/2000/svg"
 width="256.000000pt" height="256.000000pt" viewBox="0 0 256.000000 256.000000"
 preserveAspectRatio="xMidYMid meet">
<metadata>
Created by potrace 1.11, written by Peter Selinger 2001-2013
</metadata>
<g transform="translate(0.000000,256.000000) scale(0.100000,-0.100000)"
fill="#000000" stroke="none">
<path d="M1110 2174 c-416 -341 -418 -343 -422 -325 -2 9 -4 58 -3 109 l1 92
-113 0 c-83 0 -113 -3 -114 -12 0 -7 -1 -100 -1 -206 l-1 -192 -76 -62 c-42
-35 -81 -67 -87 -73 -6 -5 -75 -62 -152 -125 -108 -87 -139 -118 -132 -129 12
-23 124 -160 131 -160 6 -1 22 12 191 152 l118 97 0 -122 c1 -68 1 -255 0
-416 0 -160 3 -293 7 -293 4 -1 34 -2 66 -3 l57 -1 0 232 c0 214 1 233 18 245
10 7 41 32 68 55 27 23 157 130 289 239 132 108 262 215 288 237 27 22 52 36
55 31 4 -5 59 -52 122 -104 63 -52 124 -103 134 -112 11 -10 23 -18 27 -18 5
0 10 39 11 86 l3 87 55 -1 c30 0 63 -1 73 -1 15 -1 17 -15 17 -154 l0 -153
128 -106 127 -106 0 -226 c0 -145 3 -227 10 -229 5 -2 33 -3 60 -3 l50 1 0
413 c0 226 1 412 3 412 2 0 56 -43 120 -96 168 -138 175 -144 181 -144 3 0 20
20 38 43 17 23 40 51 51 62 10 11 26 32 35 46 17 25 16 26 -16 51 -17 15 -42
35 -53 45 -12 10 -36 29 -54 43 -18 14 -38 30 -44 35 -6 6 -184 154 -396 329
-212 175 -405 336 -430 356 -153 129 -256 210 -265 209 -5 0 -84 -61 -175
-135z"/>
<path d="M1005 1169 c-154 -127 -293 -241 -308 -254 l-29 -22 0 -289 c0 -159
0 -305 1 -324 l1 -35 613 1 c336 1 615 2 619 3 4 0 7 145 7 320 l0 320 -241
198 c-256 211 -293 242 -342 285 -17 15 -33 28 -36 28 -3 0 -131 -104 -285
-231z m261 -228 c7 -1 11 -36 11 -103 l1 -103 -112 0 -111 0 -3 99 c-2 60 1
102 7 106 9 5 163 6 207 1z m260 0 c12 -1 14 -192 2 -201 -4 -3 -53 -5 -110
-5 l-103 1 -3 94 c-1 51 -1 98 1 104 4 9 153 14 213 7z m-255 -240 c4 -1 6
-48 6 -105 l-1 -103 -113 -2 -113 -1 0 103 c0 57 2 106 5 108 3 4 191 4 216 0z
m260 0 c3 0 5 -47 4 -103 l-2 -103 -111 -2 -112 -2 0 103 c0 56 2 105 4 107 4
4 198 4 217 0z"/>
</g>
</svg>
